# xmcd CD database file
#
# Track frame offsets:
#	150
#	15428
#	30822
#	44934
#	59823
#	71454
#	84500
#	98033
#	116022
#	131219
#	146325
#	160249
#	170772
#	189346
#	204973
#	222994
#
# Disc length: 3211 seconds
#
# Revision: 1
# Processed by: cddbd v1.4PL0 Copyright (c) Steve Scherf et al.
# Submitted via: CDex 1.40Release
#
DISCID=e30c8910
DTITLE=Various Artist - Romantic Piano 01
DYEAR=2000
DGENRE=Piano
TTITLE0=Nadia's theme
TTITLE1=Somewhere in time
TTITLE2=Unchained melody
TTITLE3=Once upon a time in the west
TTITLE4=Ballade pour Adeleine
TTITLE5=Souvenirs d'enfance
TTITLE6=Music box dancer
TTITLE7=The poet and I
TTITLE8=Dolannes medody
TTITLE9=Ond Day when we were young
TTITLE10=Fascination
TTITLE11=Born free
TTITLE12=You need me
TTITLE13=Out of Affrica
TTITLE14=Old friends
TTITLE15=Chasing dream
EXTD=YEAR: 2000
EXTT0=
EXTT1=
EXTT2=
EXTT3=
EXTT4=
EXTT5=
EXTT6=
EXTT7=
EXTT8=
EXTT9=
EXTT10=
EXTT11=
EXTT12=
EXTT13=
EXTT14=
EXTT15=
PLAYORDER=
